<svg width="46" height="30" xmlns="http://www.w3.org/2000/svg" xmlns:xlink="http://www.w3.org/1999/xlink"><defs><rect id="a" width="46" height="30" rx="5"/></defs><g fill="none" fill-rule="evenodd"><mask id="b" fill="#fff"><use xlink:href="#a"/></mask><g mask="url(#b)" fill="#EB6F93"><path d="M0 0h46v30H0z"/></g><g fill="#FFF" fill-rule="nonzero"><path d="M14.473 21.083h-1.368a3.48 3.48 0 0 1-1.411 2.81l-.54.403 2.098 2.846h1.724l-1.933-2.62a4.804 4.804 0 0 0 1.43-3.439zM9.583 21.083h1.4v6.058h-1.4zM15.381 21.083h1.32v6.058h-1.32zM28.27 22.836c-.502 0-.981.153-1.3.586v-.47h-1.252v4.19h1.27v-2.199c0-.635.43-.947.945-.947.552 0 .871.33.871.94v2.212h1.258v-2.67c0-.976-.78-1.642-1.791-1.642zM20.688 22.952v.269a2.198 2.198 0 0 0-1.252-.385c-1.227 0-2.22.99-2.22 2.21 0 1.222.993 2.212 2.22 2.212.466 0 .896-.14 1.252-.385v.269h1.257v-4.19h-1.257zm-1.148 3.17c-.631 0-1.14-.483-1.14-1.075 0-.593.509-1.075 1.14-1.075.632 0 1.142.482 1.142 1.075 0 .592-.51 1.075-1.142 1.075zM23.896 23.496v-.544h-1.288v4.19h1.294v-1.955c0-.66.718-1.014 1.215-1.014h.012v-1.22c-.509 0-.981.219-1.233.543zM33.976 22.952v.269a2.198 2.198 0 0 0-1.251-.385c-1.227 0-2.221.99-2.221 2.21 0 1.222.994 2.212 2.22 2.212.467 0 .896-.14 1.252-.385v.269h1.258v-4.19h-1.258zm-1.147 3.17c-.632 0-1.141-.483-1.141-1.075 0-.593.509-1.075 1.14-1.075.633 0 1.142.482 1.142 1.075.006.592-.51 1.075-1.141 1.075zM36.577 25.657a.792.792 0 0 0-.791.788.792.792 0 0 0 1.583 0 .788.788 0 0 0-.792-.788z"/></g><g fill="#FFF" fill-rule="nonzero"><path d="M10.887 7.92a54.41 54.41 0 0 1 5.521-.303c1.294 0 2.235.042 3.515.137l.594.045c.227.017.405.03.578.04.562.036 1.04.054 1.545.054.182 0 .33-.145.33-.323a.326.326 0 0 0-.33-.323c-.49 0-.953-.018-1.502-.053-.17-.01-.346-.023-.57-.04l-.595-.044a43.91 43.91 0 0 0-3.566-.14 55.086 55.086 0 0 0-5.887.34.325.325 0 0 0-.292.32v1.014c0 .053.013.105.038.152.262.482.428 1.008.49 1.55.087 1.676.26 2.725.79 3.777.767 1.524 2.135 2.386 4.214 2.386 3.632.002 4.707-.805 5.486-3.213l.121-.375c.047-.145.087-.264.127-.378-.044.128.545-1.62.675-1.93.192-.453.332-.608.47-.608.183 0 .33-.144.33-.323a.326.326 0 0 0-.33-.323c-.491 0-.795.335-1.079 1.008-.14.334-.743 2.12-.689 1.965-.042.12-.083.244-.131.393l-.122.375c-.35 1.084-.605 1.561-1.145 1.967-.7.526-1.854.796-3.713.795-1.824 0-2.966-.718-3.624-2.026-.477-.948-.64-1.932-.724-3.542a4.911 4.911 0 0 0-.525-1.73V7.92z"/><path d="M15.86 14.747h-.035a2.9 2.9 0 0 1-2.125-.82c-1.148-1.14-1.13-3.034-1.13-3.125a8.967 8.967 0 0 1-.04-.883 1.021 1.021 0 0 1 .234-.77c.181-.216.442-.35.726-.374.798-.088 2.023-.13 2.827-.14 2.066-.024 3.192.1 3.65.398.619.394.538.983 0 2.664l-.145.364c-.535 1.73-.839 2.686-3.963 2.686zm1.168-5.528l-3.13 3.84a.32.32 0 0 0 .05.453c.143.112.35.09.464-.05l3.13-3.839a.32.32 0 0 0-.051-.454.334.334 0 0 0-.463.05zm-2.076-.13l-1.797 2.203a.32.32 0 0 0 .051.454c.143.112.35.09.464-.05l1.797-2.203a.32.32 0 0 0-.052-.455.334.334 0 0 0-.463.05zM34.393 7.92v.645a4.894 4.894 0 0 0-.524 1.71c-.086 1.63-.248 2.613-.725 3.561-.659 1.308-1.8 2.026-3.625 2.026-1.856 0-3.01-.272-3.71-.8-.542-.407-.797-.886-1.15-1.972l-.12-.373c-.048-.147-.09-.269-.13-.388.054.155-.55-1.63-.69-1.965-.283-.673-.587-1.008-1.08-1.008a.326.326 0 0 0-.329.323c0 .179.148.323.33.323.139 0 .279.155.47.609.13.309.72 2.057.675 1.929.04.113.08.231.126.375l.12.371c.784 2.412 1.86 3.223 5.488 3.223 2.08 0 3.448-.862 4.215-2.386.53-1.052.703-2.1.792-3.796.06-.523.226-1.05.487-1.53a.318.318 0 0 0 .039-.153V7.631a.325.325 0 0 0-.292-.322 55.08 55.08 0 0 0-5.886-.338c-1.315 0-2.271.042-3.567.139l-.595.044c-.224.017-.4.03-.57.04-.55.035-1.012.053-1.502.053a.326.326 0 0 0-.33.323c0 .178.148.323.33.323.505 0 .982-.018 1.545-.054.172-.01.35-.023.577-.04l.595-.045a43.26 43.26 0 0 1 3.516-.137c1.843.007 3.686.108 5.52.303z"/><path d="M29.411 14.747c-3.124 0-3.427-.956-3.975-2.683l-.12-.379c-.548-1.681-.62-2.267 0-2.665.457-.303 1.583-.421 3.65-.397.807 0 2.029.052 2.827.14.285.025.547.162.728.38.18.217.264.497.231.776 0 .303 0 .607-.043.91 0 .055.018 1.96-1.13 3.102a2.9 2.9 0 0 1-2.128.819h-.04v-.003zm-1.816-5.658l-1.797 2.203a.32.32 0 0 0 .051.454c.142.112.35.09.463-.05l1.797-2.203a.32.32 0 0 0-.051-.455.334.334 0 0 0-.463.05zm2.075.13l-3.13 3.84a.32.32 0 0 0 .051.453c.143.112.35.09.463-.05l3.131-3.839a.32.32 0 0 0-.051-.454.334.334 0 0 0-.464.05z"/></g></g></svg>